<?xml version="1.0" encoding="UTF-8"?>
<!-- Created with Inkscape (http://www.inkscape.org/) -->
<svg width="197.38mm" height="47.832mm" version="1.1" viewBox="0 0 197.38 47.832" xmlns="http://www.w3.org/2000/svg">
 <g transform="translate(-3.6163 -95.155)">
  <path transform="scale(.26458)" d="m420.28 359.64c-0.0924 6.4387-0.22231 12.18-0.39062 17.227-0.16824 5.0463-0.33654 9.3359-0.50586 12.867-0.21795 4.1073-0.44492 7.73-0.67774 10.869-0.23783 2.8164-0.53682 5.8046-0.90039 8.9648-0.29374 2.715-0.66602 5.7785-1.1152 9.1895-0.44918 3.4109-0.95298 6.8981-1.5117 10.461 1.4483 0.0254 2.7662 0.0726 3.9531 0.14063 1.2162 0.10255 2.2402 0.18751 3.0723 0.25781l2.7363 0.23242c-0.0423-0.64819-0.0374-1.6802 0.0176-3.0938 0.0547-1.4136 0.13863-2.969 0.25-4.668 0.11389-1.7309 0.23017-3.4941 0.34961-5.2891 0.15133-1.7922 0.28732-3.3926 0.40625-4.8008l5.7012 17.791 11.586 0.20312c-2.549-5.6948-4.5671-10.409-6.0566-14.145-1.4895-3.7358-2.5739-6.5508-3.252-8.4453 0.44349-0.67165 1.0252-1.6396 1.7441-2.9004 0.71889-1.2608 1.6342-2.9392 2.7461-5.0371 1.1439-2.0952 2.5042-4.6709 4.084-7.7285s3.4383-6.7372 5.5742-11.037l-10.947-2.6152c-1.4476 4.1647-2.9352 8.0523-4.4648 11.662-1.527 3.5778-3.0819 7.0888-4.6621 10.533 0.1082-1.2802 0.27064-3.0061 0.48633-5.1797 0.24779-2.1709 0.5568-4.8694 0.92578-8.0938 0.36898-3.2243 0.81497-6.9898 1.3398-11.297 0.52758-4.339 1.1546-9.283 1.8809-14.83-0.22672 0.0121-0.51513 4e-3 -0.86718-0.0254-0.29075 8e-3 -0.6445-6e-3 -1.0606-0.041-0.38405-0.0323-0.83168-0.0699-1.3438-0.11328-2.1443-0.18109-5.1774-0.53414-9.0977-1.0586zm-23.367 13.035c-1.8628-0.0154-3.6818 0.38658-5.4551 1.207-1.7731 0.78833-3.359 2.2521-4.7578 4.3926-1.3985 2.1083-2.5457 5.0071-3.4434 8.6934-0.86564 3.6866-1.3235 8.4201-1.3711 14.201-0.0318 3.854 0.10086 7.2112 0.39844 10.072 0.32967 2.8613 0.79151 5.3223 1.3848 7.3828 0.59325 2.0605 1.3175 3.7522 2.1738 5.0762 0.88842 1.3242 1.8606 2.3767 2.9141 3.1563 1.0535 0.77954 2.1882 1.318 3.4062 1.6172 1.2502 0.30045 2.5495 0.45672 3.8984 0.4668 1.3489 0.0111 2.6675-0.15537 3.9551-0.49805 1.2876-0.3427 2.4809-0.94265 3.5801-1.8008 1.1312-0.85788 2.1535-1.9908 3.0644-3.3965 0.94332-1.4376 1.7442-3.2285 2.4043-5.375 0.69248-2.1784 1.2278-4.7434 1.6055-7.6953 0.37777-2.9518 0.58298-6.3864 0.61523-10.305 0.0324-3.9183-0.13231-7.3083-0.49414-10.17-0.3618-2.8616-0.87128-5.2922-1.5293-7.2891-0.65776-2.0289-1.4481-3.6733-2.3691-4.9336-0.92104-1.2602-1.9236-2.2473-3.0098-2.9629-1.054-0.71537-2.1916-1.191-3.4102-1.4258-1.1862-0.26649-2.3722-0.40399-3.5605-0.41407zm116.57 0.24415c-0.75172 4e-3 -1.5126 0.0323-2.2832 0.082-1.1868 8.1344-2.5319 16.165-4.0332 24.094-1.47 7.9358-3.1498 15.922-5.0391 23.957-1.3894 5.9092-2.8766 11.813-4.4609 17.709 0.60883 0.63806 1.3264 1.1691 2.1504 1.5938 0.84787 0.46332 1.6482 0.84934 2.4004 1.1582 0.8773 0.33825 1.7491 0.62618 2.6172 0.86329 0.68785 0.16179 1.6263 0.31599 2.8125 0.46289 1.1789 0.17839 2.4678 0.23449 3.8691 0.16797 1.4326-0.0591 2.9021-0.27476 4.4082-0.64649 1.5448-0.39564 3.0009-1.0438 4.3672-1.9434 1.3736-0.93077 2.6027-2.1589 3.6875-3.6855 1.1234-1.5505 1.9647-3.5144 2.5234-5.8906 0.1691-0.71909 0.31013-1.6755 0.42578-2.8691 0.12304-1.2248 0.0543-2.5448-0.20703-3.959-0.25401-1.4455-0.78418-2.9062-1.5918-4.3828-0.77632-1.4693-1.991-2.8276-3.6445-4.0742 2.1424-0.55206 4.0892-1.4633 5.8398-2.7344 1.7506-1.2711 3.2875-2.7576 4.6113-4.459 1.3551-1.694 2.4775-3.5242 3.3691-5.4922 0.92262-1.96 1.6125-3.9098 2.0684-5.8477v-2e-3c0.58037-2.4692 0.77984-4.7139 0.5957-6.7363-0.17686-2.0542-0.61982-3.8915-1.3281-5.5098-0.70095-1.6495-1.6012-3.0814-2.7012-4.2969-1.0613-1.2394-2.1981-2.2988-3.4102-3.1777-1.2047-0.91016-2.4219-1.6243-3.6524-2.1445-1.1918-0.54405-2.273-0.93017-3.2422-1.1582-1.2267-0.2555-2.5266-0.47893-3.9004-0.66992-1.1862-0.14715-2.5284-0.26558-4.0254-0.35352-0.73287-0.0409-1.4748-0.0591-2.2266-0.0547zm-148.7 2.3184c-0.58858-4e-3 -1.2135 0.0261-1.873 0.0879-1.1192 0.10477-2.1251 0.37586-3.0195 0.81446-0.89444 0.43857-1.7284 1.017-2.5 1.7344-0.74257 0.68243-1.427 1.4718-2.0527 2.3691-0.5967 0.86232-1.141 1.7675-1.6328 2.7168-0.44852-1.3451-0.93631-2.4285-1.4648-3.25-0.53152-0.85347-1.1546-1.4875-1.8711-1.9043-0.68747-0.45175-1.4861-0.71492-2.3965-0.79101-0.88137-0.11036-1.8996-0.11175-3.0508-4e-3 -1.0233 0.0958-2.0105 0.3977-2.9629 0.90625-0.92342 0.47355-1.7994 1.1033-2.6289 1.8906-0.83252 0.75537-1.6197 1.6523-2.3613 2.6894-0.70965 1.0342-1.3502 2.1253-1.9199 3.2754l-0.63867-5.7949c-0.4647 0.20487-1.1381 0.41335-2.0215 0.625-0.7555 0.19973-1.7858 0.4102-3.0879 0.62891-1.3021 0.21868-2.973 0.45536-5.0137 0.71093 0.99367 5.1006 1.8122 10.04 2.4531 14.818 0.66994 4.7438 1.2324 9.5456 1.6875 14.406 0.24251 2.5902 0.46544 5.5054 0.67188 8.7441 0.23842 3.2358 0.38964 6.561 0.45117 9.9746l11.316-2.125c-0.33939-2.936-0.6754-6.0173-1.0098-9.2441-0.32443-2.7761-0.66421-5.8892-1.0195-9.3398l-1.002-10.697c-0.17964-1.9187-0.18003-3.4664 0-4.6445 0.18003-1.1782 0.46661-2.0927 0.85742-2.7422 0.4198-0.68454 0.9072-1.1489 1.4648-1.3945 0.58663-0.28072 1.1685-0.44803 1.7441-0.50195 0.44769-0.0421 0.85775 0.0317 1.2305 0.22266 0.40469 0.18791 0.76437 0.58946 1.0801 1.2051s0.59152 1.4787 0.82422 2.5859c0.26467 1.1043 0.48077 2.551 0.64843 4.3418 0.012 0.12792 0.0381 0.41558 0.0801 0.86328 0.0739 0.4447 0.15341 1.1312 0.24023 2.0586 0.11881 0.92437 0.23399 2.1554 0.34571 3.6934 0.11172 1.538 0.22802 3.462 0.34765 5.7734 0.14862 2.2765 0.29216 5.0216 0.43164 8.2344 0.13651 3.1808 0.2747 6.8936 0.41407 11.139l10.41-1.9902c-0.0378-1.0932-0.0904-2.3467-0.1582-3.7598-0.0708-1.445-0.14486-2.9376-0.22461-4.4785-0.0507-1.5759-0.12024-3.1834-0.20898-4.8203-0.0888-1.6369-0.17416-3.2247-0.25391-4.7656-0.2074-3.5936-0.42685-7.3166-0.6582-11.166-0.0419-0.4477-0.13081-1.2295-0.26758-2.3457-0.10479-1.1192-0.27325-2.3942-0.50391-3.8242 0.22398-1.0533 0.48534-1.8837 0.78321-2.4922 0.32985-0.61155 0.67536-1.0637 1.0352-1.3555 0.3568-0.32363 0.70983-0.51898 1.0586-0.58398 0.34577-0.0968 0.66141-0.15859 0.94921-0.18555 0.47968-0.0448 0.92148 0.0269 1.3262 0.21484 0.43667 0.18495 0.83005 0.58466 1.1777 1.1973 0.37667 0.57764 0.69626 1.4192 0.96094 2.5234 0.29666 1.1013 0.5287 2.5302 0.69336 4.2891 0.012 0.1279 0.0859 0.75094 0.22265 1.8672 0.13377 1.0843 0.2995 2.8589 0.49805 5.3242 0.19854 2.4653 0.40765 5.7195 0.625 9.7637 0.24633 4.0093 0.45201 8.9746 0.61914 14.895l10.41-1.9922c-0.25709-5.847-0.5134-11.516-0.76953-17.008-0.25913-5.5242-0.6443-11.02-1.1562-16.488-0.35628-3.8054-0.81745-6.8438-1.3848-9.1133-0.53834-2.3045-1.2505-4.0434-2.1348-5.2188-0.85526-1.2102-1.91-1.9676-3.1641-2.2695-0.78381-0.18882-1.6655-0.28653-2.6465-0.29297zm-56.547 4.6445c-1.0804-7e-3 -2.095 0.0709-3.0449 0.23242-1.8682 0.31765-3.5328 0.97519-4.9922 1.9726-1.4277 0.99208-2.598 2.2497-3.5117 3.7734-0.8821 1.5183-1.4813 3.2644-1.7969 5.2402-0.28932 1.9388-0.24165 4.0331 0.14063 6.2812 0.38765 2.2798 1.1245 4.3208 2.2129 6.123 1.12 1.7969 2.3687 3.3924 3.7461 4.7871 1.4091 1.3894 2.8236 2.6158 4.2422 3.6777 1.4449 1.0249 2.6853 1.9048 3.7226 2.6406 1.0427 0.7675 1.8599 1.6384 2.4492 2.6133 0.61558 0.93785 1.0001 1.8669 1.1562 2.7852 0.18307 1.0766 0.0981 2.0995-0.25781 3.0723-0.32958 0.93569-0.89731 1.7181-1.7031 2.3438-1.0873 0.11994-2.2257 0.13419-3.4141 0.043-1.0246-0.0864-2.1661-0.28439-3.4238-0.59179-1.2577-0.30741-2.534-0.82244-3.8301-1.5469l1.4609 10.893c0.95248 0.61989 1.9715 1.0497 3.0547 1.2891 1.1095 0.20233 2.1393 0.31975 3.0898 0.35352 1.0826 0.0438 2.1794-0.0113 3.293-0.16797 1.4882-0.25305 3.0315-0.76117 4.6289-1.5215 1.592-0.79198 2.9881-1.8752 4.1875-3.252 1.231-1.3822 2.1475-3.0851 2.748-5.1094 0.62686-2.0614 0.69989-4.5022 0.2207-7.3203-0.45637-2.3007-1.1738-4.2142-2.1504-5.7422-0.94491-1.5335-2.014-2.8496-3.2109-3.9492-1.1653-1.105-2.387-2.0545-3.6621-2.8477-1.2805-0.82477-2.4789-1.6467-3.5957-2.4668-1.0905-0.85709-2.0455-1.7866-2.8672-2.7871-0.79543-1.0376-1.3236-2.3161-1.582-3.8359-0.27459-1.6148-0.0693-3.0016 0.61328-4.1602 0.67725-1.1903 1.5982-1.9995 2.7637-2.4258 0.90274-0.0557 1.838-0.0174 2.8047 0.11133 0.83466 0.11873 1.751 0.33743 2.75 0.65625 0.99362 0.28714 1.9631 0.72423 2.9102 1.3125l-1.1211-11.195c-2.1617-0.6423-4.1671-1.0359-6.0156-1.1777-0.69522-0.0651-1.3674-0.0992-2.0156-0.10351zm157.91 0.0605c-1.3946 0.0173-2.7112 0.2306-3.9473 0.63867-1.9777 0.65296-3.7284 1.6468-5.2539 2.9824-1.4891 1.3084-2.7082 2.8832-3.6582 4.7246-0.94544 1.8096-1.5623 3.6994-1.8496 5.6699-0.0695 0.47672-0.12564 0.97121-0.16797 1.4844-0.0378 0.48136-0.065 0.99731-0.0801 1.5469l10.994 1.4082c-0.0665-0.65882-0.0905-1.28-0.0703-1.8613 0.0516-0.5767 0.1121-1.1034 0.18164-1.5801 0.10195-0.69921 0.26706-1.3877 0.49609-2.0684 0.26548-0.70782 0.58369-1.327 0.95313-1.8574 0.40587-0.55753 0.87269-0.9777 1.4004-1.2578 0.56411-0.3074 1.1953-0.40869 1.8945-0.30664 1.1442 0.16678 1.9889 0.82384 2.5352 1.9746 0.55098 1.1189 0.67495 2.7285 0.36914 4.8262-0.18532 1.2713-0.6529 2.3547-1.4004 3.252-0.71108 0.87008-1.7651 1.7544-3.1621 2.6543-1.3606 0.87274-3.0565 1.827-5.0898 2.8613-2.0333 1.0344-4.4468 2.3375-7.2402 3.9102-2.0836 1.1568-3.653 2.5685-4.707 4.2324-1.0176 1.6368-1.6578 3.3603-1.9219 5.1719-0.23156 1.5891-0.18775 3.1697 0.13477 4.7422 0.35895 1.5454 0.94913 2.9622 1.7676 4.25 0.81844 1.2878 1.8433 2.3796 3.0762 3.2734 1.2376 0.86193 2.619 1.4025 4.1445 1.625 1.2488 0.11706 2.5471 0.0146 3.8926-0.3086 1.1454-0.28742 2.3852-0.78812 3.7227-1.502 1.3421-0.74562 2.6166-1.9072 3.8203-3.4844l-0.93946 6.4355 8.2266 1.6875c0.9512-5.4116 1.8084-10.628 2.5723-15.645 0.79554-5.0117 1.559-10.028 2.291-15.049v-2e-3c0.40293-2.7644 0.65345-5.487 0.75195-8.166 0.13496-2.7068-0.12184-5.1774-0.76953-7.4141-0.61586-2.232-1.737-4.117-3.3633-5.6523-1.5898-1.5625-3.925-2.5681-7.0078-3.0176-0.89387-0.13031-1.7589-0.19006-2.5957-0.17969zm55.752 2.2559c1.5265 0.52389 2.7213 1.2668 3.584 2.2285 0.90132 0.93777 1.5698 1.9526 2.0059 3.0449 0.43598 1.0924 0.68531 2.2072 0.74805 3.3438 0.0932 1.1439 0.096 2.183 8e-3 3.1191-0.0496 0.9122-0.14361 1.6657-0.2832 2.2598-0.13254 0.56274-0.19506 0.82811-0.1875 0.79687h2e-3c-0.8805 2.7624-1.9961 5.2548-3.3438 7.4785-0.58653 0.95087-1.2381 1.9027-1.957 2.8555-0.71159 0.92148-1.5213 1.7706-2.4297 2.5469-0.86977 0.75233-1.8466 1.3964-2.9297 1.9336-1.0519 0.54448-2.189 0.8894-3.4102 1.0312 1.3068-5.1368 2.6419-10.251 4.0039-15.342 1.3932-5.0834 2.7889-10.182 4.1895-15.297zm-297.03 2.5898-10.902 4.1582 6.9238 18.715c-1.1692-0.9634-2.292-1.6389-3.3691-2.0234-1.0771-0.38457-2.0213-0.62602-2.834-0.72656-0.94469-0.0902-1.8389-0.0289-2.6816 0.18555-1.5533 0.51996-2.8722 1.538-3.957 3.0527-1.0848 1.5147-1.8327 3.4752-2.2461 5.8828s-0.44714 5.2476-0.0977 8.5176c0.36975 3.2293 1.223 6.8383 2.5586 10.828 1.7434 5.2081 3.5872 9.4524 5.5312 12.73 1.9339 3.2477 3.8578 5.7527 5.7695 7.5176 1.9422 1.7546 3.831 2.8488 5.6699 3.2832 1.8287 0.4038 3.5209 0.34613 5.0742-0.17383 0.60901-0.30549 1.2285-0.78278 1.8574-1.4336 0.52745-0.54914 1.084-1.3113 1.6719-2.2871 0.57764-1.0063 1.0884-2.3126 1.5332-3.918l1.5606 4.6602 8.7715-2.9375zm171.74 0.0254c0.64234 5e-3 1.2331 0.2353 1.7754 0.68945 0.54254 0.42205 1.003 1.2117 1.3789 2.3711 0.37587 1.1594 0.66663 2.7354 0.875 4.7285 0.20863 1.961 0.30084 4.4832 0.27539 7.5664-0.0512 6.1986-0.40969 10.756-1.0762 13.674-0.66645 2.9183-1.706 4.372-3.1191 4.3594-0.67447-6e-3 -1.3139-0.26818-1.9199-0.78711-0.57386-0.51863-1.0819-1.3891-1.5215-2.6133-0.40729-1.256-0.73083-2.9131-0.97071-4.9707-0.20762-2.0895-0.29743-4.708-0.27148-7.8555 0.0257-3.1153 0.14312-5.7482 0.35351-7.8984 0.21073-2.1824 0.49859-3.9637 0.86328-5.3418 0.39681-1.3779 0.87085-2.3689 1.4219-2.9746 0.55128-0.63677 1.1968-0.9523 1.9356-0.94726zm190.81 6.8086c-1.0263-7e-3 -1.9545 0.17812-2.7812 0.55469-0.78539 0.35772-1.4645 0.89258-2.0391 1.6035-0.56336 0.68085-1.014 1.4725-1.3516 2.375-0.33771 0.90245-0.52363 1.8092-0.55664 2.7227-0.052 0.87216 0.0969 1.7177 0.44336 2.5332 0.35772 0.78539 0.93492 1.5323 1.7324 2.2422 0.80875 0.67979 1.8737 1.2666 3.1973 1.7617 1.2634 0.47181 2.4093 0.71119 3.4356 0.71875 1.0676-0.0121 2.0087-0.19063 2.8242-0.53711 0.82671-0.37657 1.5226-0.90509 2.0859-1.5859 0.60468-0.69966 1.0745-1.5018 1.4121-2.4043 0.33681-0.90246 0.51639-1.7943 0.53906-2.6777 0.0331-0.91351-0.14342-1.7678-0.53125-2.5644-0.34648-0.81547-0.92367-1.5644-1.7324-2.2441-0.79748-0.70987-1.8432-1.3071-3.1367-1.791-1.2935-0.48441-2.4734-0.71963-3.541-0.70703zm-319.62 1.1582-11.084 2.5547c1.1783 3.6765 2.1754 6.8355 2.9883 9.4785 0.83593 2.6039 1.5397 4.8277 2.1133 6.6699 0.5967 1.8032 1.0695 3.2556 1.4199 4.3594 0.35037 1.1038 0.61862 2.0151 0.80273 2.7305 0.20722 0.67631 0.35903 1.201 0.45508 1.5742 0.11916 0.33414 0.21507 0.63999 0.28711 0.91992 1.0966 4.2613 1.4919 7.4768 1.1875 9.6445-0.31243 2.1366-1.0898 3.3654-2.334 3.6856-0.7154 0.18409-1.4258 0.13297-2.1289-0.15039-0.67996-0.32249-1.3492-0.92902-2.0098-1.8203-0.66051-0.89129-1.3158-2.083-1.9648-3.5742-0.62598-1.5303-1.2264-3.4148-1.8027-5.6543-0.96858-3.7636-1.7259-7.216-2.2695-10.359-0.54363-3.1434-0.9717-5.8368-1.2832-8.0781-0.28838-2.2805-0.48985-4.0356-0.60742-5.2656-0.0945-1.2703-0.1899-1.8924-0.2832-1.8672l-11.018 1.8398c1.0079 4.9475 1.8272 9.0313 2.457 12.252 0.65296 3.1816 1.1652 5.7524 1.5371 7.7129 0.37188 1.9605 0.64257 3.4003 0.8125 4.3184 0.16993 0.91804 0.28485 1.5522 0.3418 1.9023l0.0723 0.47852c-8e-3 -0.031 1e-3 5.2e-4 0.0254 0.0937 0.0551 0.0853 0.13793 0.34577 0.25 0.78125 0.13517 0.39634 0.35774 1.201 0.66992 2.4141 0.69642 2.7061 1.5101 5.2162 2.4375 7.5312 0.91941 2.2839 2.0262 4.2049 3.3223 5.7617 1.3272 1.5488 2.9013 2.6355 4.7207 3.2617 1.8194 0.62568 3.9883 0.61516 6.5078-0.0332 0.37326-0.0961 0.82742-0.26264 1.3633-0.5 0.57497-0.2143 1.1412-0.52662 1.6992-0.93554 0.55806-0.40895 1.0935-0.91031 1.6035-1.5059 0.54113-0.60357 0.96397-1.3442 1.2695-2.2188 0.19828 0.51275 0.35277 0.98835 0.46484 1.4238l0.3125 1.2129c0.32819 1.2753 0.51771 2.3368 0.57032 3.1855 0.0526 0.84873-0.0356 1.5351-0.26563 2.0586-0.19097 0.54662-0.53077 0.9662-1.0195 1.2578-0.48075 0.32282-1.0933 0.57948-1.8398 0.77148-1.0264 0.26417-2.2521 0.52997-3.6758 0.79688-1.198 0.24196-2.6952 0.54329-4.4922 0.90625s-3.8514 0.76063-6.1621 1.1894l2.2559 10.312c2.9888-0.3712 5.6386-0.77039 7.9492-1.1992 2.3107-0.42882 4.3382-0.86815 6.0801-1.3164 3.4215-0.88053 6.0694-1.9929 7.9453-3.3379 1.8839-1.314 3.1457-3.0487 3.7852-5.2031 0.6475-2.1233 0.7704-4.7403 0.36719-7.8535-0.40321-3.1132-1.1813-6.9096-2.334-11.389-1.8171-7.0607-3.6914-13.959-5.623-20.691-1.9086-6.7719-3.868-13.48-5.877-20.127zm286.97 6.7871c-0.6662 5e-3 -1.3191 0.062-1.9609 0.16992-2.0539 0.34543-3.9361 1.0616-5.6465 2.1504-1.6703 1.0674-3.1156 2.4392-4.334 4.1152-1.2089 1.6453-2.1047 3.4201-2.6875 5.3242-0.141 0.46067-0.27094 0.94062-0.39062 1.4414-0.11011 0.47008-0.21398 0.97668-0.3125 1.5176l10.652 3.0586c0.0343-0.66124 0.10505-1.278 0.21289-1.8496 0.13841-0.56222 0.27687-1.0725 0.41797-1.5332 0.20679-0.67565 0.47501-1.3326 0.80469-1.9707 0.36974-0.65935 0.77898-1.2232 1.2246-1.6914 0.48572-0.48957 1.0101-0.83251 1.5742-1.0293 0.60417-0.21695 1.2443-0.22249 1.9199-0.0156 1.1056 0.3384 1.8396 1.1176 2.2051 2.3379 0.37475 1.1896 0.25323 2.7973-0.36719 4.8242-0.37601 1.2285-1.002 2.2304-1.877 3.0039-0.83482 0.75215-2.01 1.467-3.5274 2.1445-1.4772 0.6563-3.3001 1.3407-5.4668 2.0547-2.1667 0.71397-4.7504 1.6368-7.75 2.7676-2.235 0.82742-3.9988 1.9839-5.293 3.4688-1.2541 1.4635-2.1497 3.0697-2.6856 4.8203-0.4701 1.5356-0.66436 3.1057-0.58398 4.709 0.12041 1.5819 0.48792 3.0717 1.1016 4.4688 0.61367 1.397 1.4618 2.6307 2.5449 3.7012 1.0925 1.0398 2.3755 1.7851 3.8496 2.2363 1.2166 0.30514 2.5137 0.39861 3.8926 0.2832 1.1758-0.11036 2.4799-0.41524 3.9102-0.91796 1.4396-0.53342 2.8738-1.4888 4.3027-2.8652l-1.9043 6.2188 7.875 2.9141c1.761-5.2047 3.4001-10.229 4.916-15.072 1.5467-4.8337 3.0616-9.6769 4.5469-14.529 0.81784-2.6719 1.4786-5.3253 1.9824-7.959 0.54384-2.655 0.66618-5.1383 0.36523-7.4473-0.27021-2.2996-1.0922-4.3314-2.4668-6.0957-1.3344-1.7856-3.4917-3.1331-6.4707-4.0449-1.5836-0.4847-3.1086-0.72079-4.5742-0.70899zm53.088 5.8359c-0.91137 2.3356-1.8319 4.6144-2.7637 6.8359-0.90235 2.2344-1.8538 4.4998-2.8535 6.7969-1.0051-0.50749-2.0328-1.0429-3.084-1.6055-1.0512-0.56254-2.0607-1.1424-3.0273-1.7383l-4.5625 9.5215c1.1575 0.39869 2.3152 0.83233 3.4766 1.3027 1.1742 0.44095 2.3338 0.87654 3.4785 1.3047-2.7428 6.3023-5.539 12.528-8.3906 18.678-2.8388 6.1204-5.7395 12.301-8.7012 18.543l9.7949 4.0527c0.88955-2.2049 1.767-4.3794 2.6309-6.5254 0.90615-2.1627 1.8213-4.3034 2.7441-6.4238 1.7943-4.123 3.6128-8.1835 5.457-12.18 1.8865-4.0128 3.87-8.0883 5.9512-12.227 1.1191 0.48703 2.2538 0.98061 3.4024 1.4805 1.178 0.51265 2.3128 1.042 3.4062 1.5879l4.2129-8.834c-1.1998-0.38203-2.3729-0.7867-3.5176-1.2148-1.1025-0.44475-2.2264-0.88045-3.3711-1.3086 1.1213-2.1741 2.2574-4.3426 3.4082-6.5039 1.1636-2.1908 2.3825-4.428 3.6562-6.7109zm-138.96 1.0801c-0.28598 1.5163-0.56576 2.8876-0.84179 4.1133-0.27142 1.1938-0.53294 2.2092-0.78516 3.0488-0.2754 0.9985-0.55142 1.8829-0.82617 2.6543-0.41643 1.0753-0.94502 2.0372-1.5879 2.8848-0.6429 0.84755-1.3498 1.5719-2.1191 2.1738-0.73759 0.60654-1.5005 1.0474-2.2871 1.3223-0.7548 0.27944-1.4654 0.3707-2.1328 0.27344-0.88991-0.12971-1.5828-0.60285-2.0801-1.4219-0.4927-0.85083-0.67469-1.7214-0.54492-2.6113 0.12046-0.82633 0.4651-1.6364 1.0352-2.4297 0.60646-0.82041 1.3039-1.5952 2.0918-2.3242 0.81968-0.72441 1.696-1.3914 2.6289-2.002 0.93755-0.64232 1.8158-1.2136 2.6348-1.7109 0.46876-0.32116 0.9772-0.68456 1.5234-1.0918 0.4734-0.35293 0.98748-0.76555 1.543-1.2363 0.55551-0.47081 1.1376-1.0175 1.748-1.6426zm111.25 0.73047c-1.4548 4.8053-2.9294 9.5684-4.4219 14.291-0.6525 2.0192-1.3386 4.1285-2.0586 6.3281-0.6787 2.1808-1.3776 4.3706-2.0977 6.5703-0.70878 2.1696-1.4372 4.2979-2.1836 6.3848-0.71637 2.0982-1.4107 4.0506-2.0859 5.8555-2.0482 5.4749-3.9495 9.4107-5.7031 11.807-1.7649 2.426-3.6564 3.2618-5.6719 2.5078-0.96262-0.36012-1.8625-0.74941-2.7012-1.166-0.84986-0.38654-1.5888-0.74812-2.2168-1.0859-0.7371-0.41292-1.4081-0.81878-2.0137-1.2168l-3.7207 8.8457c0.50036 0.49582 1.1033 0.99487 1.8066 1.498 0.59429 0.42807 1.35 0.88283 2.2676 1.3633 0.87627 0.49927 1.901 0.96734 3.0742 1.4062 0.69188 0.25897 1.4395 0.50401 2.2441 0.73633 0.83472 0.24368 1.7222 0.44004 2.6621 0.58593 2.1204 0.38179 4.0597 0.14587 5.8184-0.70507 1.7474-0.82087 3.3835-2.2144 4.9082-4.1816 1.5548-1.956 3.053-4.4474 4.4941-7.4746 1.4524-3.0573 2.9314-6.6018 4.4394-10.633 0.45017-1.2033 0.98238-2.6666 1.5938-4.3926 0.61141-1.7259 1.2737-3.5873 1.9863-5.584 0.71269-1.9967 1.4369-4.0741 2.1758-6.2324 0.75014-2.1884 1.4934-4.3123 2.2285-6.3691 1.6803-4.8581 3.4565-9.9723 5.3281-15.342zm-360.77 7.0352c0.81741 3e-3 1.5894 0.32532 2.3164 0.9668 1.0777 0.89242 2.0849 2.1804 3.0215 3.8652 0.92636 1.6544 1.7816 3.5533 2.5664 5.6953 0.81524 2.1318 1.6013 4.2227 2.3555 6.2734 0.6627 1.9797 1.1914 3.8688 1.5898 5.666 0.3882 1.7668 0.58413 3.3613 0.58594 4.7832 0.0323 1.4118-0.14459 2.6046-0.5293 3.5801-0.39491 0.94506-1.0492 1.5711-1.9629 1.877-0.73097 0.24479-1.4562 0.19947-2.1777-0.13476-0.69109-0.34447-1.3681-0.89731-2.0293-1.6582-0.67135-0.79136-1.322-1.725-1.9531-2.8008-0.63108-1.0758-1.2214-2.2323-1.7715-3.4707-0.56023-1.2689-1.0905-2.5486-1.5898-3.8379-0.46886-1.2994-0.90121-2.5426-1.2988-3.7305-0.57095-1.7056-1.1274-3.4678-1.668-5.2852-0.54062-1.8174-0.90852-3.5228-1.1035-5.1172-0.16454-1.6045-0.0853-2.9863 0.23828-4.1445 0.354-1.1685 1.1102-1.9446 2.2676-2.332 0.39023-0.13063 0.77103-0.19663 1.1426-0.19532zm-34.984 0.96485c-0.61576 8e-3 -1.2263 0.0784-1.832 0.21289-1.1945 0.22682-2.3393 0.57173-3.4336 1.0352-1.7154 0.72645-3.2224 1.8195-4.5234 3.2774-1.3135 1.4283-2.1866 3.4017-2.6191 5.9219-0.4451 2.4905-0.34692 5.6044 0.29492 9.3438 0.67142 3.7268 2.1342 8.2526 4.3887 13.576 1.503 3.549 2.9606 6.577 4.3711 9.084 1.44 2.4944 2.8416 4.5698 4.2051 6.2246 1.3635 1.6548 2.7016 2.9186 4.0137 3.793 1.3416 0.86188 2.6492 1.4418 3.9258 1.7383 1.2766 0.29657 2.5329 0.33879 3.7695 0.1289 1.2662-0.22228 2.5215-0.59505 3.7637-1.1211 1.2422-0.52606 2.3864-1.203 3.4316-2.0293s1.901-1.8518 2.5684-3.0762c0.69697-1.2369 1.1839-2.682 1.4609-4.334 0.29405-1.6941 0.31797-3.6566 0.0703-5.8887-0.23061-2.2742-0.76092-4.8405-1.5879-7.6992-0.82697-2.8587-2.0032-6.091-3.5312-9.6992-1.528-3.6082-3.0284-6.6548-4.498-9.1367-1.4696-2.4819-2.9032-4.5075-4.3008-6.0781-1.4102-1.6002-2.7866-2.7957-4.1328-3.5859-1.3462-0.79028-2.6603-1.2967-3.9414-1.5215-0.62576-0.11871-1.2475-0.17389-1.8633-0.16601zm328.34 1.3516c0.83868 0.36218 1.561 0.79708 2.168 1.3027 0.61433 0.47438 1.1159 1.0052 1.5059 1.5918 0.42855 0.56267 0.74929 1.1649 0.96094 1.8086 0.21886 0.61239 0.3904 1.2144 0.51562 1.8047 0.2687 1.383 0.25471 2.8478-0.043 4.3945-0.43198 1.4162-1.0836 2.7137-1.9551 3.8945-0.38246 0.50397-0.83086 1.0098-1.3457 1.5156-0.48361 0.51318-1.0569 0.98799-1.7207 1.4258-0.65648 0.40655-1.4035 0.77626-2.2402 1.1074-0.82938 0.29979-1.7546 0.5113-2.7734 0.63477 0.77191-3.2829 1.5689-6.5288 2.3887-9.7344 0.82709-3.2369 1.6734-6.4853 2.5391-9.7461zm42.758 9.791c-0.51266 1.4554-0.9983 2.7679-1.457 3.9375-0.44934 1.1388-0.86162 2.1049-1.2383 2.8965-0.42366 0.94518-0.83018 1.7773-1.2188 2.498-0.57469 0.99971-1.2438 1.8691-2.0078 2.6094-0.76399 0.74023-1.5721 1.3499-2.4238 1.8281-0.82104 0.48778-1.6398 0.80874-2.459 0.96093-0.78846 0.16152-1.5054 0.14261-2.1504-0.0547-0.85992-0.26321-1.4745-0.83767-1.8418-1.7227-0.35794-0.91568-0.40578-1.8022-0.14258-2.6621 0.24441-0.79851 0.70881-1.5465 1.3926-2.2441 0.72388-0.71894 1.5306-1.3794 2.4199-1.9805 0.92007-0.5917 1.8876-1.1181 2.9024-1.5801 1.0241-0.49267 1.9783-0.92369 2.8633-1.291 0.51205-0.24635 1.0702-0.52799 1.6719-0.84766 0.52145-0.27704 1.0924-0.60718 1.7129-0.98828 0.62048-0.3811 1.2784-0.83412 1.9766-1.3594zm-370.88 1.1543c0.31741-0.0123 0.64726 0.0303 0.98633 0.13086 0.6656 0.17154 1.4012 0.71449 2.207 1.6289s1.7 2.2462 2.6836 3.9922c0.97106 1.7164 2.0574 3.9928 3.2598 6.832 2.4173 5.708 3.901 10.035 4.4492 12.977 0.54826 2.9419 0.17045 4.6872-1.1309 5.2383-0.62108 0.26306-1.3119 0.27635-2.0742 0.041-0.73275-0.24777-1.5436-0.84446-2.4336-1.793-0.87296-0.99062-1.829-2.3832-2.8672-4.1758-1.0212-1.8347-2.1456-4.2012-3.373-7.0996-1.2149-2.8688-2.1527-5.332-2.8144-7.3887-0.67425-2.0863-1.1188-3.8327-1.332-5.2422-0.18367-1.422-0.14371-2.522 0.12109-3.2969 0.25228-0.80443 0.72016-1.3506 1.4004-1.6387 0.29576-0.12523 0.60056-0.19273 0.91797-0.20508zm-23.936 2.0742-7.9492 3.2461 2.5996 5.3242c-1.2884-1.3116-2.5422-2.2834-3.7617-2.918-1.204-0.67734-2.3487-1.1163-3.4356-1.3164-1.1005-0.22929-2.1118-0.27001-3.0352-0.1211-0.89428 0.13524-1.6906 0.36631-2.3887 0.69336-1.4833 0.69496-2.6705 1.8728-3.5606 3.5312-0.90364 1.6293-1.4167 3.6782-1.5371 6.1465-0.12042 2.4683 0.18147 5.3055 0.90429 8.5137 0.75191 3.1946 2.0274 6.7117 3.8262 10.551 2.3166 4.9443 4.6297 8.9337 6.9375 11.967 2.2942 3.004 4.4979 5.287 6.6133 6.8496 2.1309 1.52 4.1351 2.3892 6.0117 2.6094 1.8766 0.22027 3.5558-0.016 5.0391-0.71094 0.5526-0.25892 1.1158-0.61143 1.6875-1.0566 0.6008-0.45883 1.1331-1.0628 1.5976-1.8125 0.50725-0.73421 0.9098-1.6157 1.209-2.6426 0.32838-1.0405 0.4826-2.2652 0.46093-3.6738 1.2618 2.9202 1.9113 5.3646 1.9473 7.334 0.0651 1.9558-0.60201 3.2619-1.998 3.916-0.9734 0.42061-2.1347 0.89399-3.4844 1.4199-1.1324 0.45967-2.5474 1.0332-4.2461 1.7227-1.6696 0.67583-3.6156 1.4456-5.8359 2.3086l4.1484 9.7617c1.9531-0.52493 3.7362-1.1112 5.3477-1.7598 1.625-0.61951 3.1213-1.2502 4.4883-1.8906 2.763-1.2945 4.9996-2.5741 6.7129-3.8379 1.756-1.2484 3.0546-2.5664 3.8945-3.9531 0.86908-1.4003 1.339-2.9328 1.4102-4.5976 0.0712-1.6649-0.18216-3.5677-0.75977-5.709-0.5776-2.1412-1.4212-4.5467-2.5312-7.2188-1.1237-2.7012-2.4302-5.7968-3.9219-9.2832zm470.63 0.5918c-0.13052-7e-4 -0.2605 4.1e-4 -0.39062 4e-3 -2.082 0.056-4.0472 0.50382-5.8926 1.3438-1.8027 0.82444-3.4234 1.9807-4.8633 3.4707-1.4263 1.4609-2.56 3.094-3.4024 4.8984-0.20384 0.43654-0.39967 0.89576-0.58789 1.375-0.17456 0.45015-0.34863 0.93511-0.52148 1.457l10.121 4.5117c0.12634-0.65 0.28255-1.2498 0.46875-1.8008 0.21538-0.53745 0.42506-1.0244 0.62891-1.4609 0.29888-0.64028 0.65697-1.2539 1.0723-1.8398 0.45798-0.60145 0.94079-1.1023 1.4473-1.5039 0.54914-0.41704 1.1152-0.68438 1.7012-0.80079 0.62869-0.13183 1.264-0.0469 1.9043 0.25196 1.0477 0.48909 1.6674 1.3618 1.8594 2.6211 0.20553 1.2302-0.14045 2.8057-1.0371 4.7266-0.54342 1.1641-1.3013 2.0688-2.2754 2.7129-0.93142 0.62857-2.196 1.1732-3.793 1.6328-1.5542 0.44417-3.4542 0.86817-5.6992 1.2734-2.245 0.40527-4.9307 0.96008-8.0586 1.6621-2.3284 0.5081-4.2382 1.4071-5.7266 2.6973-1.4457 1.2746-2.5557 2.7415-3.3301 4.4004-0.67918 1.4552-1.0905 2.9813-1.2344 4.5801-0.10106 1.5833 0.0556 3.1092 0.46876 4.5781 0.4131 1.4689 1.0804 2.8087 2.0039 4.0195 0.93705 1.1818 2.105 2.0998 3.502 2.752 1.1622 0.47156 2.4349 0.74636 3.8164 0.82422 1.1797 0.0545 2.5117-0.0686 3.998-0.36719 1.4999-0.32776 3.0534-1.0743 4.6602-2.2383l-2.752 5.8945 7.3926 3.9824c2.4686-4.9088 4.7912-9.6555 6.9668-14.24 2.2047-4.5712 4.3808-9.1556 6.5273-13.754 1.182-2.532 2.2046-5.0676 3.0703-7.6055 0.90923-2.5534 1.3758-4.9939 1.3984-7.3223 0.0527-2.3148-0.47829-4.4423-1.5938-6.3809-1.0728-1.954-3.0207-3.5904-5.8438-4.9082-2.0463-0.95515-4.0481-1.4367-6.0059-1.4473zm21.801 11.416-3.9062 8.8652 11.602 4.998-30.682 32.445 23.258 10.662 4.375-9.1758-11.432-5.1289 29.834-31.678zm-501.83 1.1484c0.4385-0.0104 0.87762 0.0761 1.3184 0.25977 0.86784 0.33821 1.7151 0.93463 2.541 1.7891 0.85503 0.84079 1.6832 1.8528 2.4863 3.0371 0.80316 1.1843 1.5474 2.4316 2.2324 3.7422 0.70046 1.2679 1.3437 2.5267 1.9297 3.7773 0.60141 1.2079 1.1127 2.2624 1.5352 3.1641 0.88573 1.8904 1.6302 3.7058 2.2324 5.4453 0.58859 1.7105 0.96572 3.2732 1.1309 4.6856 0.19423 1.3987 0.15681 2.6039-0.11328 3.6172-0.28373 0.98419-0.86186 1.681-1.7344 2.0898-0.69802 0.32706-1.4245 0.36639-2.1797 0.11719-0.72608-0.26278-1.4609-0.73413-2.2051-1.4141-0.75781-0.70899-1.5132-1.5624-2.2637-2.5586-0.75049-0.99618-1.4695-2.0771-2.1582-3.2441-0.70229-1.1961-1.3754-2.4056-2.0195-3.6289-0.61503-1.237-1.1893-2.4243-1.7207-3.5586-0.7631-1.6287-1.5238-3.3293-2.2832-5.1016-0.75943-1.7723-1.3341-3.4525-1.7246-5.043-0.36142-1.6041-0.45401-3.0156-0.27929-4.2324 0.20379-1.2305 0.85769-2.1033 1.9629-2.6211 0.43626-0.20445 0.874-0.31188 1.3125-0.32227zm-23.812 2.7832-10.371 4.668c1.8734 3.3757 3.468 6.2795 4.7812 8.7129 1.3282 2.3906 2.4528 4.4341 3.375 6.1289 0.93727 1.652 1.685 2.9839 2.2441 3.998 0.55914 1.0141 1.0001 1.8558 1.3203 2.5215 0.33526 0.62282 0.58682 1.1078 0.7539 1.4551 0.18212 0.30445 0.33564 0.58522 0.46094 0.8457 1.9075 3.9652 2.9222 7.0411 3.0469 9.2266 0.11075 2.1565-0.41258 3.5134-1.5703 4.0703-0.66569 0.32025-1.3704 0.41013-2.1152 0.26953-0.72983-0.18354-1.5063-0.64741-2.3281-1.3926-0.82181-0.74517-1.6953-1.7853-2.623-3.1211-0.91271-1.3786-1.8706-3.1114-2.873-5.1953-1.6848-3.5021-3.1012-6.74-4.248-9.7168-1.1469-2.9768-2.0909-5.5345-2.834-7.6719-0.72809-2.1803-1.2715-3.8616-1.627-5.0449-0.34042-1.2263-0.5538-1.8192-0.64063-1.7773l-10.445 3.957c1.9545 4.6555 3.5542 8.4994 4.8008 11.535 1.2616 2.9929 2.2662 5.4155 3.0137 7.2656 0.74749 1.8502 1.2947 3.209 1.6406 4.0762 0.34589 0.8672 0.58085 1.4665 0.70507 1.7988l0.16407 0.45508c-0.0139-0.029 1e-3 9.6e-4 0.043 0.0879 0.0707 0.0729 0.20352 0.31158 0.39844 0.71679 0.20995 0.36234 0.58589 1.1076 1.1289 2.2363 1.2114 2.5181 2.4978 4.8208 3.8594 6.9102 1.3476 2.0604 2.8097 3.7281 4.3848 5.002 1.604 1.2599 3.359 2.0204 5.2656 2.2793 1.9066 0.25895 4.0326-0.17688 6.377-1.3047 0.34732-0.16708 0.76103-0.4184 1.2402-0.75586 0.52207-0.32244 1.0169-0.73999 1.4844-1.25 0.46747-0.51001 0.89146-1.1054 1.2754-1.7891 0.41287-0.6976 0.68552-1.5064 0.81445-2.4238 0.29459 0.4642 0.5375 0.8995 0.73242 1.3047 0.181 0.37626 0.36391 0.75264 0.54492 1.1289 0.57087 1.1867 0.96435 2.1915 1.1816 3.0137 0.2173 0.82212 0.26407 1.512 0.14063 2.0703-0.0806 0.5734-0.33149 1.0502-0.75391 1.4316-0.40849 0.41036-0.96161 0.78303-1.6562 1.1172-0.95512 0.45949-2.103 0.9583-3.4473 1.498-1.1277 0.47121-2.5389 1.0608-4.2305 1.7676-1.6915 0.7068-3.6281 1.4974-5.8106 2.3691l4.2266 9.6738c2.8588-0.94758 5.38-1.8568 7.5625-2.7285 2.1825-0.87169 4.0843-1.6968 5.7051-2.4766 3.1838-1.5316 5.5634-3.1408 7.1406-4.8262 1.5911-1.6565 2.4907-3.604 2.6973-5.8418 0.22047-2.2089-0.17055-4.8008-1.1738-7.7754-1.0033-2.9746-2.5087-6.545-4.5137-10.713-3.1606-6.5701-6.3457-12.969-9.5547-19.195-3.194-6.269-6.4254-12.465-9.6934-18.592zm560.18 11.371c-0.13052-9.3e-4 -0.2605 6.3e-4 -0.39063 4e-3 -2.0821 0.0524-4.0477 0.49723-5.8945 1.334-1.8041 0.82134-3.4267 1.9754-4.8691 3.4629-1.4288 1.4584-2.5667 3.0877-3.4121 4.8906-0.20465 0.43621-0.40087 0.89413-0.58984 1.373-0.1755 0.44984-0.34983 0.93541-0.52344 1.457l10.113 4.5312c0.1274-0.64977 0.28545-1.2501 0.47266-1.8008 0.21629-0.53707 0.42626-1.0247 0.63086-1.4609 0.29999-0.63974 0.65791-1.2527 1.0742-1.8379 0.45903-0.60067 0.94401-1.1012 1.4512-1.502 0.54987-0.4161 1.1169-0.68147 1.7031-0.79688 0.62892-0.13092 1.2626-0.0461 1.9024 0.25391 1.0469 0.49089 1.6657 1.3654 1.8555 2.625 0.20341 1.2305-0.14497 2.8053-1.0449 4.7246-0.54541 1.1632-1.306 2.0666-2.2812 2.709-0.93251 0.62695-2.1972 1.17-3.7949 1.627-1.555 0.4415-3.4555 0.86228-5.7012 1.2637-2.2457 0.40141-4.9334 0.94984-8.0625 1.6465-2.3293 0.50409-4.2379 1.3999-5.7285 2.6875-1.4479 1.2721-2.5606 2.737-3.3379 4.3945-0.68165 1.454-1.0955 2.9815-1.2422 4.5801-0.10381 1.5831 0.0484 3.1086 0.45898 4.5781 0.41061 1.4696 1.0767 2.811 1.998 4.0234 0.935 1.1834 2.1002 2.1013 3.4961 2.7559 1.1614 0.47365 2.4331 0.7519 3.8144 0.83203 1.1796 0.0565 2.5132-0.0633 4-0.35938 1.5005-0.32514 3.0554-1.0692 4.6641-2.2305l-2.7617 5.8887 7.3848 3.9961c2.4771-4.9045 4.8087-9.6475 6.9922-14.229 2.2123-4.5668 4.3966-9.1481 6.5508-13.742v-2e-3c1.186-2.5294 2.2142-5.0618 3.084-7.5976 0.91288-2.5518 1.3827-4.992 1.4102-7.3203 0.0566-2.3147-0.47187-4.4424-1.584-6.3828-1.0694-1.9559-3.0132-3.5953-5.834-4.918-2.0447-0.95872-4.0462-1.4451-6.0039-1.459zm-57.77 0.0176c-0.7103 1.3698-1.3731 2.603-1.9902 3.6973-0.60356 1.0652-1.1476 1.9619-1.6309 2.6934-0.55115 0.87698-1.0695 1.645-1.5547 2.3047-0.70831 0.90993-1.4919 1.6781-2.3516 2.3047s-1.7442 1.1177-2.6543 1.4726c-0.88096 0.36856-1.7379 0.57259-2.5703 0.60938-0.8033 0.0504-1.5119-0.0682-2.123-0.35352-0.81502-0.3804-1.3417-1.0334-1.582-1.9609-0.22695-0.95659-0.14993-1.8433 0.23046-2.6582 0.35324-0.75669 0.91714-1.4317 1.6914-2.0273 0.81693-0.6111 1.7075-1.1536 2.6719-1.625 0.99348-0.4578 2.0246-0.84399 3.0938-1.1602 1.0827-0.34537 2.0881-0.63853 3.0156-0.87891 0.54135-0.17257 1.1311-0.3746 1.7715-0.60742 0.55497-0.20172 1.1665-0.44926 1.834-0.74023 0.66751-0.29098 1.3839-0.64741 2.1484-1.0703zm-532.11 1.8281-23.119 10.838 4.373 8.6465 11.225-5.7949 5.6035 44.303 23-11.209-4.3144-9.2031-11.219 5.5781zm610.71 10.311c-1.417 3.7631-3.0758 8.0341-4.9766 12.812-1.6316 4.0897-3.648 9.0105-6.0488 14.762-2.3585 5.7348-5.102 12.143-8.2305 19.223l10.492 3.793 7.0352-17.592c0.48645-1.2598 0.98806-2.5129 1.5039-3.7598 0.51583-1.2468 1.0466-2.4868 1.5918-3.7207 0.76588-1.7333 1.5696-3.397 2.4141-4.9902 0.84447-1.5932 1.7085-2.9499 2.5898-4.0703 0.89434-1.1498 1.8034-1.9763 2.7285-2.4805 0.93805-0.53359 1.8783-0.59315 2.8184-0.17773 0.11749 0.0518 0.31734 0.19277 0.60156 0.42382 0.31368 0.24391 0.5493 0.66331 0.70703 1.2598 0.15824 0.59643 0.16933 1.41 0.0312 2.4375-0.0957 1.0112-0.49433 2.3101-1.1953 3.8965-0.40242 0.91072-0.90873 1.8965-1.5195 2.9609-0.56844 1.048-1.3247 2.243-2.2676 3.582 1.2851 0.11132 2.5507 0.26724 3.7969 0.4668 1.2462 0.19951 2.3494 0.40402 3.3086 0.61719 1.1191 0.24871 2.1805 0.50884 3.1856 0.77734 0.47415-0.91412 1.0001-1.9466 1.5781-3.0957 0.62037-1.1656 1.2225-2.4085 1.8066-3.7305 0.73993-1.6745 1.4021-3.453 1.9883-5.3359 0.61556-1.8699 0.99171-3.6724 1.125-5.4043 0.13324-1.7319-0.0632-3.2754-0.58789-4.6309-0.51172-1.3849-1.5174-2.4083-3.0156-3.0703-0.44067-0.19462-1.1338-0.4136-2.0801-0.65625-0.91686-0.22954-2.0278-0.29774-3.332-0.20703-1.2619 0.0745-2.6679 0.43494-4.2188 1.084-1.5085 0.63264-3.0597 1.721-4.6543 3.2637l1.7598-5.1738zm-680.11 0.14062c-1.0629 0.0112-2.0722 0.11674-3.0254 0.31836-1.2409 0.25759-2.2677 0.5385-3.0801 0.8418-1.1434 0.42688-2.5145 1.0246-4.1133 1.793-1.5687 0.75706-3.0596 1.6732-4.4746 2.75 1.6971 3.9947 3.3227 7.9815 4.877 11.961 1.543 3.9494 3.0606 7.9258 4.5547 11.928 2.5838 6.9206 5.0305 13.84 7.3398 20.76 2.3394 6.9089 4.5446 13.869 6.6133 20.879l11.012-4.1113c-1.4648-3.4643-2.9193-6.9494-4.3652-10.455-1.4271-3.5469-2.8501-7.1297-4.2695-10.748 2.6041-1.9322 4.6758-4.094 6.2168-6.4863 1.5297-2.4224 2.5937-4.9453 3.1914-7.5684 0.62784-2.6342 0.81194-5.309 0.55273-8.0234-0.24035-2.7558-0.84444-5.4279-1.8105-8.0156-1.1683-3.1293-2.4885-5.7038-3.9629-7.7246-1.4744-2.0208-3.0158-3.622-4.623-4.8047-1.6184-1.2128-3.2485-2.0444-4.8906-2.4941-1.6232-0.49104-3.1773-0.75082-4.6621-0.7793-0.36649-0.0174-0.72577-0.0232-1.0801-0.0195zm39.738 0.61133c-0.80163-0.0167-1.6259 0.15949-2.4707 0.52734-0.44171 0.19236-1.0713 0.55401-1.8906 1.0859-0.78985 0.51911-1.5937 1.2894-2.4102 2.3106-0.79984 0.97887-1.4858 2.2592-2.0586 3.8398-0.5562 1.5384-0.80701 3.4148-0.75195 5.6328l-2.6152-4.7988-8.4512 4.3633c1.809 3.5912 3.8283 7.7052 6.0566 12.34 1.904 3.9701 4.1582 8.7858 6.7637 14.447 2.6221 5.6192 5.478 11.977 8.5684 19.074l9.8965-5.1504-8.1777-17.09c-0.59746-1.2111-1.18-2.4284-1.748-3.6523-0.56802-1.224-1.1216-2.4546-1.6602-3.6914-0.75656-1.7374-1.4348-3.4559-2.0352-5.1562-0.6003-1.7003-1.0147-3.2548-1.2422-4.6621-0.24017-1.4367-0.23211-2.6654 0.02344-3.6875 0.24272-1.0515 0.83503-1.783 1.7773-2.1934 0.11779-0.0514 0.35832-0.10359 0.7207-0.15625 0.39184-0.0656 0.86053 0.0461 1.4062 0.33399 0.54571 0.28782 1.15 0.8295 1.8125 1.627 0.67917 0.7552 1.3642 1.9294 2.0566 3.5195 0.39752 0.91286 0.7809 1.9528 1.1504 3.123 0.38612 1.128 0.75293 2.4931 1.0996 4.0938 0.9523-0.8701 1.9233-1.6968 2.9141-2.4785 0.99077-0.78175 1.8888-1.4523 2.6953-2.0137 0.94089-0.65494 1.8503-1.2608 2.7285-1.8184-0.35144-0.96796-0.753-2.0543-1.207-3.2578-0.4374-1.2458-0.94444-2.5303-1.5215-3.8555-0.73092-1.6785-1.5917-3.3716-2.5801-5.0781-0.95889-1.7193-2.0289-3.2153-3.2129-4.4863-1.184-1.271-2.454-2.1712-3.8066-2.7031-0.5974-0.24565-1.2066-0.37566-1.8301-0.38867zm-41.51 7.6367c1.1504-2e-3 2.2286 0.25876 3.2344 0.7832 1.1683 0.55806 2.2154 1.2984 3.1426 2.2207 0.95726 0.91109 1.8166 1.9275 2.5781 3.0488 0.75025 1.0912 1.3766 2.1254 1.8789 3.1035 0.52118 0.93677 0.90521 1.7365 1.1523 2.3984 0.27713 0.65083 0.4203 0.9915 0.43164 1.0215 0.74102 2.2603 1.1804 4.4437 1.3164 6.5527 0.06251 0.90227 0.05514 1.8474-0.02148 2.8359-0.04653 0.97731-0.21501 1.9503-0.50586 2.916-0.272 0.92435-0.67166 1.8264-1.1992 2.709-0.49747 0.87141-1.1751 1.6745-2.0332 2.4062l-0.58984-1.5801c-1.7749-4.7542-3.4877-9.4802-5.1387-14.178-1.6622-4.7277-3.2436-9.4689-4.7441-14.223 0.1673-0.011 0.3337-0.0153 0.49805-0.0156zm719.59 5.1992c-0.39485-2e-3 -0.78689 0.0132-1.1758 0.0488-2.0741 0.18975-4.0054 0.76387-5.793 1.7207-1.7459 0.93863-3.2897 2.1979-4.6309 3.7773-1.3294 1.5496-2.3555 3.2507-3.0801 5.1055-0.17537 0.44876-0.34303 0.9198-0.5 1.4102-0.14539 0.46042-0.28695 0.95632-0.42578 1.4883l10.391 3.8516c0.0842-0.65678 0.20309-1.2663 0.35352-1.8281 0.18036-0.55018 0.35783-1.0493 0.5332-1.498 0.25711-0.65817 0.5744-1.2929 0.95117-1.9043 0.41839-0.62964 0.86611-1.1604 1.3457-1.5938 0.52123-0.45163 1.0712-0.7545 1.6484-0.9082 0.61891-0.17194 1.2578-0.13016 1.916 0.12695 1.077 0.42071 1.7509 1.2537 2.0234 2.498 0.28419 1.2144 0.0408 2.8087-0.73047 4.7832-0.46746 1.1966-1.167 2.1481-2.0977 2.8535-0.8891 0.68712-2.1156 1.3117-3.6797 1.873-1.5225 0.54316-3.3912 1.088-5.6055 1.6367-2.2143 0.54877-4.8593 1.2741-7.9355 2.1758-2.291 0.65673-4.1367 1.6774-5.5391 3.0605-1.3608 1.3649-2.3749 2.9002-3.041 4.6055-0.58444 1.4958-0.89693 3.0456-0.9375 4.6504 9.1e-4 1.5865 0.25501 3.0998 0.76172 4.5391 0.50668 1.4393 1.2584 2.7338 2.2578 3.8828 1.0111 1.1191 2.2359 1.9586 3.6719 2.5195 1.1901 0.39481 2.4757 0.58625 3.8594 0.57617 1.1808-0.0215 2.5047-0.22752 3.9688-0.62109 1.4757-0.42349 2.9773-1.2683 4.5059-2.5332l-2.3672 6.0586 7.6328 3.498c2.148-5.0573 4.1607-9.9431 6.0371-14.658 1.9063-4.7034 3.7824-9.4177 5.6289-14.145v-2e-3c1.0167-2.6027 1.8754-5.1969 2.5762-7.7852 0.7424-2.6065 1.052-5.0734 0.92578-7.3984-0.0963-2.3134-0.76418-4.4009-2.002-6.2637-1.1962-1.881-3.2446-3.3879-6.1465-4.5215-1.823-0.71214-3.5898-1.0718-5.3008-1.0801zm-60.02 0.99023c-0.71266 1.3686-1.379 2.5982-1.998 3.6914-0.60538 1.0641-1.1503 1.9628-1.6348 2.6934-0.55267 0.87602-1.0723 1.642-1.5586 2.3008-0.7099 0.90872-1.4948 1.6756-2.3555 2.3008-0.86073 0.62513-1.7475 1.1153-2.6582 1.4688-0.88158 0.36712-1.7378 0.56824-2.5703 0.60352-0.8034 0.049-1.5104-0.0691-2.1211-0.35547-0.81426-0.38181-1.3412-1.0369-1.5801-1.9648-0.22533-0.95697-0.14743-1.842 0.23438-2.6562 0.35452-0.75608 0.92003-1.4311 1.6953-2.0254 0.81799-0.60969 1.7086-1.1514 2.6738-1.6211 0.99429-0.45609 2.028-0.83999 3.0976-1.1543 1.0833-0.34341 2.0877-0.63418 3.0156-0.87304 0.54165-0.1718 1.1327-0.37391 1.7734-0.60547 0.55528-0.2008 1.1679-0.44652 1.8359-0.73633 0.668-0.28982 1.3851-0.64481 2.1504-1.0664zm59.516 25.805c-0.62078 1.4126-1.2045 2.6847-1.75 3.8164-0.53385 1.1018-1.0179 2.032-1.4531 2.793-0.49363 0.91058-0.96059 1.7109-1.4023 2.4004-0.64837 0.9536-1.3817 1.7706-2.1992 2.4512-0.81759 0.68059-1.6694 1.2279-2.5547 1.6406-0.85543 0.42442-1.6971 0.68128-2.5254 0.77149-0.79841 0.10179-1.5124 0.0306-2.1406-0.21485-0.83767-0.32723-1.4055-0.94536-1.7051-1.8555-0.28793-0.94004-0.26864-1.8303 0.0586-2.668 0.30385-0.77783 0.82228-1.4887 1.5566-2.1328 0.77599-0.66235 1.6304-1.2586 2.5625-1.791 0.96202-0.52075 1.967-0.9732 3.0137-1.3574 1.0583-0.41414 2.0411-0.7707 2.9512-1.0703 0.52916-0.20706 1.1064-0.44724 1.7305-0.7207 0.54082-0.23698 1.1358-0.52216 1.7832-0.85547 0.64741-0.33328 1.3384-0.73585 2.0742-1.207z"/>
 </g>
</svg>
